<mxfile host="app.diagrams.net" modified="2021-11-17T14:36:09.570Z" agent="5.0 (Windows NT 10.0; Win64; x64) AppleWebKit/537.36 (KHTML, like Gecko) Chrome/95.0.4638.69 Safari/537.36" etag="XHmROoOu58ubuTBUs7bB" version="15.7.4" type="github">
  <diagram id="C5RBs43oDa-KdzZeNtuy" name="Page-1">
    <mxGraphModel dx="1117" dy="669" grid="1" gridSize="10" guides="1" tooltips="1" connect="1" arrows="1" fold="1" page="1" pageScale="1" pageWidth="3300" pageHeight="4681" math="0" shadow="0">
      <root>
        <mxCell id="WIyWlLk6GJQsqaUBKTNV-0" />
        <mxCell id="WIyWlLk6GJQsqaUBKTNV-1" parent="WIyWlLk6GJQsqaUBKTNV-0" />
        <mxCell id="WIyWlLk6GJQsqaUBKTNV-2" value="" style="rounded=0;html=1;jettySize=auto;orthogonalLoop=1;fontSize=11;endArrow=block;endFill=0;endSize=8;strokeWidth=1;shadow=0;labelBackgroundColor=none;edgeStyle=orthogonalEdgeStyle;" parent="WIyWlLk6GJQsqaUBKTNV-1" source="WIyWlLk6GJQsqaUBKTNV-3" edge="1">
          <mxGeometry relative="1" as="geometry">
            <mxPoint x="220" y="170" as="targetPoint" />
          </mxGeometry>
        </mxCell>
        <mxCell id="WIyWlLk6GJQsqaUBKTNV-3" value="Programmet startas" style="rounded=1;whiteSpace=wrap;html=1;fontSize=12;glass=0;strokeWidth=1;shadow=0;" parent="WIyWlLk6GJQsqaUBKTNV-1" vertex="1">
          <mxGeometry x="160" y="80" width="120" height="40" as="geometry" />
        </mxCell>
        <mxCell id="hYbfKDlgvJkBust5B-tn-15" style="edgeStyle=orthogonalEdgeStyle;rounded=0;orthogonalLoop=1;jettySize=auto;html=1;" edge="1" parent="WIyWlLk6GJQsqaUBKTNV-1" source="hYbfKDlgvJkBust5B-tn-5" target="hYbfKDlgvJkBust5B-tn-16">
          <mxGeometry relative="1" as="geometry">
            <mxPoint x="220" y="320" as="targetPoint" />
          </mxGeometry>
        </mxCell>
        <mxCell id="hYbfKDlgvJkBust5B-tn-5" value="initierar klassen &#39;main&#39;" style="swimlane;startSize=23;" vertex="1" parent="WIyWlLk6GJQsqaUBKTNV-1">
          <mxGeometry x="124.5" y="170" width="191" height="100" as="geometry" />
        </mxCell>
        <mxCell id="hYbfKDlgvJkBust5B-tn-6" value="initisering av pygame vars" style="text;html=1;align=left;verticalAlign=middle;resizable=0;points=[];autosize=1;strokeColor=none;fillColor=none;" vertex="1" parent="hYbfKDlgvJkBust5B-tn-5">
          <mxGeometry y="25" width="150" height="20" as="geometry" />
        </mxCell>
        <mxCell id="hYbfKDlgvJkBust5B-tn-9" value="initisierar händelse lyssnare" style="text;html=1;align=left;verticalAlign=middle;resizable=0;points=[];autosize=1;strokeColor=none;fillColor=none;" vertex="1" parent="hYbfKDlgvJkBust5B-tn-5">
          <mxGeometry y="45" width="160" height="20" as="geometry" />
        </mxCell>
        <mxCell id="hYbfKDlgvJkBust5B-tn-10" value="initiseriar första fasen (meny fasen)" style="text;html=1;align=left;verticalAlign=middle;resizable=0;points=[];autosize=1;strokeColor=none;fillColor=none;" vertex="1" parent="hYbfKDlgvJkBust5B-tn-5">
          <mxGeometry x="1" y="65" width="200" height="20" as="geometry" />
        </mxCell>
        <mxCell id="hYbfKDlgvJkBust5B-tn-19" style="edgeStyle=orthogonalEdgeStyle;rounded=0;orthogonalLoop=1;jettySize=auto;html=1;exitX=1;exitY=0.5;exitDx=0;exitDy=0;" edge="1" parent="WIyWlLk6GJQsqaUBKTNV-1" source="hYbfKDlgvJkBust5B-tn-16">
          <mxGeometry relative="1" as="geometry">
            <mxPoint x="330" y="350" as="targetPoint" />
          </mxGeometry>
        </mxCell>
        <mxCell id="hYbfKDlgvJkBust5B-tn-16" value="Går in i&lt;br&gt;main-loopen" style="ellipse;whiteSpace=wrap;html=1;aspect=fixed;align=center;" vertex="1" parent="WIyWlLk6GJQsqaUBKTNV-1">
          <mxGeometry x="180" y="310" width="80" height="80" as="geometry" />
        </mxCell>
        <mxCell id="hYbfKDlgvJkBust5B-tn-24" style="edgeStyle=orthogonalEdgeStyle;rounded=0;orthogonalLoop=1;jettySize=auto;html=1;exitX=1;exitY=0.5;exitDx=0;exitDy=0;" edge="1" parent="WIyWlLk6GJQsqaUBKTNV-1" source="hYbfKDlgvJkBust5B-tn-23" target="hYbfKDlgvJkBust5B-tn-25">
          <mxGeometry relative="1" as="geometry">
            <mxPoint x="490" y="350.1034482758621" as="targetPoint" />
          </mxGeometry>
        </mxCell>
        <mxCell id="hYbfKDlgvJkBust5B-tn-23" value="fyller skärmen vit" style="rounded=0;whiteSpace=wrap;html=1;align=center;" vertex="1" parent="WIyWlLk6GJQsqaUBKTNV-1">
          <mxGeometry x="330" y="330" width="110" height="40" as="geometry" />
        </mxCell>
        <mxCell id="hYbfKDlgvJkBust5B-tn-27" style="edgeStyle=orthogonalEdgeStyle;rounded=0;orthogonalLoop=1;jettySize=auto;html=1;exitX=0.5;exitY=1;exitDx=0;exitDy=0;" edge="1" parent="WIyWlLk6GJQsqaUBKTNV-1" source="hYbfKDlgvJkBust5B-tn-25" target="hYbfKDlgvJkBust5B-tn-28">
          <mxGeometry relative="1" as="geometry">
            <mxPoint x="650" y="350.1034482758621" as="targetPoint" />
          </mxGeometry>
        </mxCell>
        <mxCell id="hYbfKDlgvJkBust5B-tn-25" value="lyssnar efter eventuella händelser såsom &#39;quit&#39; eller player inputs" style="rounded=0;whiteSpace=wrap;html=1;align=center;" vertex="1" parent="WIyWlLk6GJQsqaUBKTNV-1">
          <mxGeometry x="480" y="320" width="130" height="60" as="geometry" />
        </mxCell>
        <mxCell id="hYbfKDlgvJkBust5B-tn-36" style="edgeStyle=orthogonalEdgeStyle;rounded=0;orthogonalLoop=1;jettySize=auto;html=1;exitX=0.5;exitY=1;exitDx=0;exitDy=0;entryX=0.5;entryY=0;entryDx=0;entryDy=0;" edge="1" parent="WIyWlLk6GJQsqaUBKTNV-1" source="hYbfKDlgvJkBust5B-tn-28" target="hYbfKDlgvJkBust5B-tn-37">
          <mxGeometry relative="1" as="geometry">
            <mxPoint x="710" y="540" as="targetPoint" />
          </mxGeometry>
        </mxCell>
        <mxCell id="hYbfKDlgvJkBust5B-tn-28" value="räknar ut den förflutna tiden sedan förra loopens begynnelse" style="rounded=0;whiteSpace=wrap;html=1;align=center;" vertex="1" parent="WIyWlLk6GJQsqaUBKTNV-1">
          <mxGeometry x="485" y="420.00344827586207" width="120" height="60" as="geometry" />
        </mxCell>
        <mxCell id="hYbfKDlgvJkBust5B-tn-33" value="" style="endArrow=classic;html=1;rounded=0;exitX=0;exitY=0.75;exitDx=0;exitDy=0;entryX=0.5;entryY=0;entryDx=0;entryDy=0;entryPerimeter=0;edgeStyle=orthogonalEdgeStyle;dashed=1;" edge="1" parent="WIyWlLk6GJQsqaUBKTNV-1" source="hYbfKDlgvJkBust5B-tn-28" target="hYbfKDlgvJkBust5B-tn-34">
          <mxGeometry width="50" height="50" relative="1" as="geometry">
            <mxPoint x="600" y="450" as="sourcePoint" />
            <mxPoint x="590" y="420" as="targetPoint" />
          </mxGeometry>
        </mxCell>
        <mxCell id="hYbfKDlgvJkBust5B-tn-34" value="&lt;span&gt;för realistisk fysik krävs denna tids delta&lt;/span&gt;" style="shape=note;whiteSpace=wrap;html=1;backgroundOutline=1;darkOpacity=0.05;align=center;size=14;" vertex="1" parent="WIyWlLk6GJQsqaUBKTNV-1">
          <mxGeometry x="400" y="415" width="60" height="70" as="geometry" />
        </mxCell>
        <mxCell id="hYbfKDlgvJkBust5B-tn-43" style="edgeStyle=orthogonalEdgeStyle;rounded=0;orthogonalLoop=1;jettySize=auto;html=1;exitX=0.5;exitY=1;exitDx=0;exitDy=0;entryX=0.5;entryY=0;entryDx=0;entryDy=0;" edge="1" parent="WIyWlLk6GJQsqaUBKTNV-1" source="hYbfKDlgvJkBust5B-tn-37" target="hYbfKDlgvJkBust5B-tn-40">
          <mxGeometry relative="1" as="geometry" />
        </mxCell>
        <mxCell id="hYbfKDlgvJkBust5B-tn-37" value="uppdaterar den nuvarande fasen" style="rounded=0;whiteSpace=wrap;html=1;align=center;" vertex="1" parent="WIyWlLk6GJQsqaUBKTNV-1">
          <mxGeometry x="485" y="520" width="120" height="60" as="geometry" />
        </mxCell>
        <mxCell id="hYbfKDlgvJkBust5B-tn-49" value="" style="edgeStyle=orthogonalEdgeStyle;rounded=0;orthogonalLoop=1;jettySize=auto;html=1;" edge="1" parent="WIyWlLk6GJQsqaUBKTNV-1" source="hYbfKDlgvJkBust5B-tn-40" target="hYbfKDlgvJkBust5B-tn-48">
          <mxGeometry relative="1" as="geometry" />
        </mxCell>
        <mxCell id="hYbfKDlgvJkBust5B-tn-40" value="ritar de saker som ska ritas på skärmen" style="rounded=0;whiteSpace=wrap;html=1;align=center;" vertex="1" parent="WIyWlLk6GJQsqaUBKTNV-1">
          <mxGeometry x="485" y="620" width="120" height="60" as="geometry" />
        </mxCell>
        <mxCell id="hYbfKDlgvJkBust5B-tn-46" value="" style="curved=1;endArrow=classic;html=1;rounded=0;exitX=1;exitY=0.5;exitDx=0;exitDy=0;" edge="1" parent="WIyWlLk6GJQsqaUBKTNV-1" source="hYbfKDlgvJkBust5B-tn-37">
          <mxGeometry width="50" height="50" relative="1" as="geometry">
            <mxPoint x="660" y="570" as="sourcePoint" />
            <mxPoint x="700" y="330" as="targetPoint" />
            <Array as="points">
              <mxPoint x="700" y="520" />
              <mxPoint x="630" y="340" />
            </Array>
          </mxGeometry>
        </mxCell>
        <mxCell id="hYbfKDlgvJkBust5B-tn-50" style="edgeStyle=orthogonalEdgeStyle;rounded=0;orthogonalLoop=1;jettySize=auto;html=1;exitX=0;exitY=0.5;exitDx=0;exitDy=0;entryX=0.5;entryY=1;entryDx=0;entryDy=0;" edge="1" parent="WIyWlLk6GJQsqaUBKTNV-1" source="hYbfKDlgvJkBust5B-tn-48" target="hYbfKDlgvJkBust5B-tn-16">
          <mxGeometry relative="1" as="geometry" />
        </mxCell>
        <mxCell id="hYbfKDlgvJkBust5B-tn-48" value="hindrar spelet (loopen) att köras snabbare än 60 gånger per sekund" style="whiteSpace=wrap;html=1;rounded=0;" vertex="1" parent="WIyWlLk6GJQsqaUBKTNV-1">
          <mxGeometry x="315.5" y="620" width="120" height="60" as="geometry" />
        </mxCell>
        <mxCell id="hYbfKDlgvJkBust5B-tn-51" value="" style="curved=1;endArrow=classic;html=1;rounded=0;exitX=0.5;exitY=1;exitDx=0;exitDy=0;" edge="1" parent="WIyWlLk6GJQsqaUBKTNV-1" source="hYbfKDlgvJkBust5B-tn-40">
          <mxGeometry width="50" height="50" relative="1" as="geometry">
            <mxPoint x="530" y="640" as="sourcePoint" />
            <mxPoint x="320" y="820" as="targetPoint" />
            <Array as="points">
              <mxPoint x="530" y="780" />
              <mxPoint x="320" y="720" />
            </Array>
          </mxGeometry>
        </mxCell>
        <mxCell id="hYbfKDlgvJkBust5B-tn-52" value="phase stack" style="swimlane;fontStyle=0;childLayout=stackLayout;horizontal=1;startSize=30;horizontalStack=0;resizeParent=1;resizeParentMax=0;resizeLast=0;collapsible=1;marginBottom=0;align=center;" vertex="1" parent="WIyWlLk6GJQsqaUBKTNV-1">
          <mxGeometry x="436" y="40" width="140" height="120" as="geometry" />
        </mxCell>
        <mxCell id="hYbfKDlgvJkBust5B-tn-53" value="meny" style="text;strokeColor=none;fillColor=none;align=left;verticalAlign=middle;spacingLeft=4;spacingRight=4;overflow=hidden;points=[[0,0.5],[1,0.5]];portConstraint=eastwest;rotatable=0;" vertex="1" parent="hYbfKDlgvJkBust5B-tn-52">
          <mxGeometry y="30" width="140" height="30" as="geometry" />
        </mxCell>
        <mxCell id="hYbfKDlgvJkBust5B-tn-54" value="game" style="text;strokeColor=none;fillColor=none;align=left;verticalAlign=middle;spacingLeft=4;spacingRight=4;overflow=hidden;points=[[0,0.5],[1,0.5]];portConstraint=eastwest;rotatable=0;" vertex="1" parent="hYbfKDlgvJkBust5B-tn-52">
          <mxGeometry y="60" width="140" height="30" as="geometry" />
        </mxCell>
        <mxCell id="hYbfKDlgvJkBust5B-tn-55" value="pause" style="text;strokeColor=none;fillColor=none;align=left;verticalAlign=middle;spacingLeft=4;spacingRight=4;overflow=hidden;points=[[0,0.5],[1,0.5]];portConstraint=eastwest;rotatable=0;" vertex="1" parent="hYbfKDlgvJkBust5B-tn-52">
          <mxGeometry y="90" width="140" height="30" as="geometry" />
        </mxCell>
      </root>
    </mxGraphModel>
  </diagram>
</mxfile>
